<?xml version="1.0" encoding="UTF-8" standalone="no"?>
<!DOCTYPE svg PUBLIC "-//W3C//DTD SVG 1.1//EN" "http://www.w3.org/Graphics/SVG/1.1/DTD/svg11.dtd">
<svg version="1.1" xmlns="http://www.w3.org/2000/svg" xmlns:xlink="http://www.w3.org/1999/xlink" preserveAspectRatio="xMidYMid meet" viewBox="0 0 640 84" width="640" height="84"><defs><path d="M0 0C0 0 0 0 0 0C11.21 0 17.44 0 18.68 0C18.68 0 18.68 0 18.68 0C18.68 8.69 18.68 13.51 18.68 14.48C18.68 14.48 18.68 14.48 18.68 14.48C7.47 14.48 1.25 14.48 0 14.48C0 14.48 0 14.48 0 14.48C0 5.79 0 0.97 0 0Z" id="b3w76szKU"></path><path d="M38.38 68.51C38.38 68.51 38.38 68.51 38.38 68.51C47.07 68.51 51.89 68.51 52.86 68.51C52.86 68.51 52.86 68.51 52.86 68.51C52.86 77.2 52.86 82.02 52.86 82.99C52.86 82.99 52.86 82.99 52.86 82.99C44.17 82.99 39.34 82.99 38.38 82.99C38.38 82.99 38.38 82.99 38.38 82.99C38.38 74.3 38.38 69.48 38.38 68.51Z" id="b3Traz466q"></path><path d="M356.7 0C356.7 0 356.7 0 356.7 0C365.38 0 370.21 0 371.17 0C371.17 0 371.17 0 371.17 0C371.17 8.69 371.17 13.51 371.17 14.48C371.17 14.48 371.17 14.48 371.17 14.48C362.49 14.48 357.66 14.48 356.7 14.48C356.7 14.48 356.7 14.48 356.7 14.48C356.7 5.79 356.7 0.97 356.7 0Z" id="b1pZDeNEkw"></path><path d="M63.41 0L33.78 0L33.78 14.48L63.41 14.48L79.06 14.48L117.44 14.48L117.44 0L79.06 0L79.06 0L63.41 0Z" id="c1tTyeTvLI"></path><path d="M0 68.46C0 68.46 0 68.46 0 68.46C14.44 68.46 22.47 68.46 24.07 68.46C24.07 68.46 24.07 68.46 24.07 68.46C24.07 77.14 24.07 81.97 24.07 82.93C24.07 82.93 24.07 82.93 24.07 82.93C9.63 82.93 1.6 82.93 0 82.93C0 82.93 0 82.93 0 82.93C0 74.25 0 69.42 0 68.46Z" id="b3KV1pqmsV"></path><path d="M18.35 34.23C18.35 34.23 18.35 34.23 18.35 34.23C54.81 34.23 75.07 34.23 79.12 34.23C79.12 34.23 79.12 34.23 79.12 34.23C79.12 42.91 79.12 47.74 79.12 48.7C79.12 48.7 79.12 48.7 79.12 48.7C42.66 48.7 22.4 48.7 18.35 48.7C18.35 48.7 18.35 48.7 18.35 48.7C18.35 40.02 18.35 35.19 18.35 34.23Z" id="b2iCNRtJL1"></path><path d="M483.68 24.74C479.38 24.9 475.12 25.58 470.99 26.76C470.99 25.24 470.99 17.61 470.99 3.87L456.07 3.87L456.07 82.99L470.99 82.99C470.99 59.42 470.99 46.33 470.99 43.71C474.41 40.48 478.98 38.78 483.68 39C485.95 38.77 488.19 39.68 489.68 41.41C491.09 43.84 491.71 46.64 491.47 49.43C491.47 51.68 491.47 62.9 491.47 83.1L506.57 83.1C506.57 62.46 506.57 51 506.57 48.7C506.51 33.67 499.72 25.25 486.26 24.74C485.74 24.74 483.93 24.74 483.68 24.74Z" id="e5LkpkUU34"></path><path d="M604.85 26.68L605.16 26.59L605.47 26.51L605.78 26.42L606.09 26.34L606.4 26.27L606.72 26.19L607.03 26.11L607.34 26.04L607.66 25.97L607.97 25.9L608.29 25.84L608.6 25.77L608.92 25.71L609.23 25.65L609.55 25.59L609.87 25.53L610.18 25.47L610.5 25.42L610.82 25.37L611.13 25.32L611.45 25.27L611.77 25.23L612.09 25.18L612.41 25.14L612.73 25.1L613.05 25.06L613.37 25.03L613.69 24.99L614.01 24.96L614.33 24.93L614.65 24.9L614.97 24.87L615.29 24.85L615.61 24.83L615.93 24.81L616.25 24.79L616.58 24.77L616.9 24.76L617.22 24.74L619.74 24.74L620.74 24.8L621.71 24.88L622.66 24.99L623.58 25.13L624.48 25.3L625.35 25.5L626.2 25.73L627.02 25.99L627.82 26.27L628.59 26.59L629.34 26.93L630.06 27.3L630.76 27.7L631.43 28.13L632.08 28.58L632.7 29.07L633.3 29.58L633.87 30.12L634.41 30.68L634.94 31.27L635.43 31.9L635.9 32.54L636.35 33.22L636.77 33.92L637.17 34.65L637.54 35.4L637.89 36.18L638.21 36.99L638.5 37.83L638.78 38.69L639.02 39.57L639.24 40.49L639.44 41.42L639.61 42.39L639.76 43.38L639.88 44.39L639.97 45.43L640.05 46.5L640.09 47.59L640.11 48.7L640.11 60.21L640.1 61.32L640.06 62.41L640 63.47L639.91 64.5L639.79 65.52L639.65 66.5L639.48 67.47L639.29 68.4L639.08 69.31L638.83 70.2L638.56 71.06L638.27 71.89L637.95 72.7L637.61 73.48L637.24 74.24L636.84 74.97L636.42 75.67L635.97 76.34L635.5 76.99L635.01 77.62L634.48 78.21L633.94 78.78L633.36 79.32L632.77 79.83L632.14 80.31L631.5 80.77L630.82 81.2L630.13 81.6L629.4 81.97L628.66 82.32L627.88 82.63L627.08 82.92L626.26 83.18L625.41 83.41L624.54 83.61L623.64 83.78L622.72 83.92L621.77 84.03L620.8 84.11L619.8 84.17L617.22 84.17L616.89 84.15L616.56 84.13L616.23 84.11L615.9 84.08L615.57 84.05L615.25 84.02L614.92 83.99L614.59 83.95L614.26 83.9L613.94 83.86L613.61 83.81L613.29 83.76L612.96 83.7L612.64 83.64L612.32 83.58L612 83.51L611.67 83.44L611.35 83.37L611.03 83.3L610.71 83.22L610.4 83.14L610.08 83.05L609.76 82.96L609.45 82.87L609.13 82.78L608.82 82.68L608.51 82.58L608.19 82.47L607.88 82.36L607.57 82.25L607.26 82.14L606.96 82.02L606.65 81.9L606.34 81.78L606.04 81.65L605.74 81.52L605.44 81.39L605.14 81.25L604.84 81.11L604.54 80.97L604.54 82.99L589.61 82.99L589.61 3.87L604.54 3.87L604.54 26.76L604.85 26.68ZM617.22 38.66L616.43 38.64L615.65 38.66L614.87 38.71L614.1 38.8L613.34 38.92L612.58 39.07L611.83 39.26L611.09 39.49L610.36 39.74L609.65 40.03L608.94 40.34L608.25 40.69L607.58 41.08L606.92 41.49L606.28 41.93L605.66 42.4L605.06 42.9L604.48 43.43L604.48 65.48L605.06 66.01L605.66 66.5L606.28 66.97L606.92 67.4L607.57 67.81L608.24 68.19L608.93 68.53L609.63 68.85L610.34 69.13L611.07 69.38L611.8 69.6L612.55 69.79L613.3 69.94L614.06 70.06L614.83 70.15L615.6 70.2L616.38 70.21L617.16 70.19L617.54 70.22L617.92 70.23L618.29 70.21L618.67 70.18L619.04 70.13L619.4 70.05L619.76 69.96L620.11 69.85L620.46 69.72L620.8 69.57L621.13 69.41L621.45 69.23L621.77 69.03L622.07 68.81L622.36 68.58L622.64 68.33L622.91 68.06L623.17 67.78L623.39 67.37L623.61 66.96L623.8 66.54L623.99 66.11L624.16 65.68L624.31 65.24L624.45 64.8L624.57 64.36L624.68 63.91L624.77 63.46L624.85 63L624.91 62.54L624.96 62.08L624.99 61.62L625.01 61.15L625.01 60.69L624.99 60.22L624.96 59.76L625.02 49.1L625.05 48.63L625.07 48.17L625.07 47.7L625.05 47.24L625.02 46.77L624.97 46.31L624.91 45.86L624.83 45.4L624.74 44.95L624.63 44.5L624.51 44.05L624.37 43.61L624.21 43.17L624.04 42.74L623.86 42.32L623.66 41.9L623.45 41.48L623.22 41.07L622.97 40.79L622.7 40.53L622.42 40.28L622.13 40.04L621.82 39.83L621.51 39.63L621.19 39.44L620.86 39.28L620.52 39.13L620.17 39L619.82 38.89L619.46 38.8L619.09 38.73L618.72 38.68L618.35 38.64L617.98 38.63L617.6 38.63L617.22 38.66Z" id="avA6Y9bFc"></path><path d="M312.02 24.8L312.8 24.81L313.57 24.84L314.34 24.88L315.11 24.94L315.87 25.01L316.64 25.1L317.4 25.19L318.16 25.31L318.92 25.43L319.67 25.57L320.42 25.73L321.17 25.89L321.91 26.07L322.65 26.27L323.38 26.47L324.12 26.7L324.84 26.93L325.56 27.18L326.28 27.44L327 27.71L327.7 28L328.41 28.3L329.1 28.61L329.8 28.93L330.48 29.27L331.16 29.62L331.84 29.98L332.5 30.36L333.17 30.75L333.82 31.15L334.47 31.56L335.11 31.99L335.74 32.42L336.37 32.87L336.99 33.33L337.6 33.81L338.2 34.29L338.8 34.79L338.8 83.83L323.87 83.83L323.87 81.59L323.56 81.7L323.25 81.82L322.93 81.93L322.62 82.04L322.3 82.14L321.98 82.25L321.66 82.35L321.35 82.45L321.03 82.54L320.71 82.64L320.39 82.73L320.07 82.81L319.74 82.9L319.42 82.98L319.1 83.06L318.77 83.14L318.45 83.21L318.12 83.28L317.8 83.35L317.47 83.42L317.15 83.48L316.82 83.55L316.49 83.6L316.16 83.66L315.83 83.71L315.5 83.76L315.17 83.81L314.84 83.85L314.51 83.9L314.18 83.94L313.85 83.97L313.52 84.01L313.19 84.04L312.86 84.07L312.52 84.09L312.19 84.11L311.86 84.13L311.52 84.15L311.19 84.17L308.61 84.17L307.58 84.11L306.58 84.03L305.61 83.91L304.66 83.76L303.74 83.58L302.85 83.37L301.98 83.13L301.14 82.86L300.32 82.56L299.54 82.23L298.78 81.87L298.04 81.48L297.33 81.06L296.65 80.61L296 80.13L295.37 79.62L294.77 79.08L294.19 78.52L293.65 77.92L293.13 77.3L292.63 76.65L292.16 75.97L291.72 75.26L291.31 74.52L290.92 73.76L290.56 72.96L290.22 72.14L289.92 71.3L289.64 70.42L289.38 69.52L289.15 68.59L288.95 67.64L288.78 66.65L288.63 65.65L288.51 64.61L288.42 63.55L288.35 62.46L288.31 61.35L288.3 60.21L288.3 48.7L288.31 47.56L288.35 46.45L288.42 45.36L288.51 44.3L288.63 43.27L288.78 42.26L288.96 41.27L289.16 40.32L289.39 39.39L289.64 38.49L289.93 37.61L290.24 36.77L290.57 35.95L290.93 35.15L291.32 34.39L291.74 33.65L292.18 32.94L292.65 32.26L293.15 31.61L293.67 30.99L294.22 30.39L294.79 29.83L295.39 29.29L296.02 28.78L296.68 28.3L297.36 27.85L298.07 27.43L298.8 27.04L299.56 26.68L300.35 26.35L301.16 26.05L302 25.78L302.87 25.54L303.76 25.33L304.68 25.15L305.62 25L306.59 24.89L307.59 24.8L308.61 24.74L311.25 24.8L312.02 24.8ZM309.69 38.73L309.32 38.79L308.95 38.86L308.59 38.95L308.24 39.06L307.89 39.19L307.55 39.34L307.22 39.5L306.9 39.68L306.59 39.88L306.28 40.1L305.99 40.33L305.71 40.58L305.44 40.85L305.19 41.13L304.96 41.54L304.75 41.95L304.55 42.37L304.37 42.8L304.2 43.23L304.05 43.67L303.91 44.11L303.78 44.55L303.68 45L303.58 45.46L303.5 45.91L303.44 46.37L303.39 46.83L303.36 47.29L303.35 47.76L303.34 48.22L303.36 48.69L303.39 49.15L303.39 59.76L303.36 60.22L303.34 60.69L303.35 61.15L303.36 61.62L303.39 62.08L303.44 62.54L303.5 63L303.58 63.45L303.68 63.91L303.78 64.36L303.91 64.8L304.05 65.24L304.2 65.68L304.37 66.11L304.55 66.54L304.75 66.96L304.96 67.37L305.19 67.78L305.44 68.06L305.71 68.33L305.99 68.58L306.28 68.81L306.59 69.03L306.9 69.23L307.22 69.41L307.55 69.57L307.89 69.72L308.24 69.85L308.59 69.96L308.95 70.05L309.32 70.13L309.69 70.18L310.06 70.21L310.43 70.23L310.81 70.22L311.19 70.19L311.97 70.21L312.75 70.2L313.52 70.15L314.29 70.06L315.05 69.94L315.81 69.79L316.55 69.6L317.29 69.38L318.01 69.13L318.72 68.85L319.42 68.53L320.11 68.19L320.78 67.81L321.44 67.4L322.07 66.97L322.69 66.5L323.29 66.01L323.87 65.48L323.87 43.43L323.29 42.91L322.69 42.41L322.07 41.94L321.44 41.51L320.78 41.1L320.11 40.72L319.42 40.38L318.72 40.06L318.01 39.78L317.29 39.53L316.55 39.31L315.81 39.12L315.05 38.97L314.29 38.85L313.52 38.77L312.75 38.71L311.97 38.7L311.19 38.72L310.81 38.69L310.43 38.68L310.06 38.7L309.69 38.73Z" id="f1XhvnRvOg"></path><path d="M371.34 27.05C371.34 27.05 371.34 27.05 371.34 27.05C371.34 60.61 371.34 79.26 371.34 82.99C371.34 82.99 371.34 82.99 371.34 82.99C362.45 82.99 357.52 82.99 356.53 82.99C356.53 82.99 356.53 82.99 356.53 82.99C356.53 49.42 356.53 30.77 356.53 27.05C356.53 27.05 356.53 27.05 356.53 27.05C365.42 27.05 370.35 27.05 371.34 27.05Z" id="bxlmHcM5K"></path><path d="M207.66 0.01L208.11 0.03L208.55 0.06L209 0.09L209.44 0.13L209.88 0.19L210.32 0.24L210.76 0.31L211.2 0.39L211.63 0.47L212.06 0.56L212.5 0.66L212.92 0.76L213.35 0.88L213.77 1L214.2 1.13L214.62 1.26L215.03 1.41L215.45 1.56L215.86 1.72L216.27 1.89L216.67 2.06L217.07 2.24L217.47 2.43L217.87 2.63L218.26 2.83L218.65 3.04L219.03 3.26L219.41 3.49L219.79 3.72L220.16 3.96L220.53 4.2L220.9 4.46L221.26 4.72L221.61 4.99L221.96 5.26L222.31 5.54L222.65 5.83L222.99 6.12L223.72 6.8L224.42 7.5L225.09 8.23L225.72 8.97L226.32 9.74L226.88 10.52L227.4 11.32L227.9 12.14L228.35 12.97L228.78 13.81L229.17 14.67L229.52 15.55L229.84 16.43L230.12 17.32L230.37 18.22L230.58 19.13L230.76 20.04L230.91 20.96L231.01 21.89L231.09 22.82L231.12 23.75L231.12 24.68L231.09 25.61L231.02 26.54L230.91 27.46L230.77 28.39L230.6 29.31L230.38 30.22L230.13 31.13L229.85 32.03L229.53 32.92L229.17 33.8L228.78 34.67L228.35 35.52L227.88 36.37L227.38 37.19L226.84 38.01L226.27 38.8L225.65 39.58L225 40.34L224.84 40.34L225.24 40.7L225.63 41.06L226.02 41.43L226.39 41.8L226.76 42.19L227.12 42.58L227.47 42.98L227.81 43.38L228.14 43.79L228.46 44.21L228.77 44.64L229.07 45.07L229.36 45.5L229.65 45.95L229.92 46.4L230.18 46.85L230.43 47.31L230.68 47.77L230.91 48.24L231.13 48.72L231.34 49.2L231.54 49.68L231.73 50.17L231.91 50.66L232.08 51.16L232.24 51.66L232.39 52.16L232.53 52.67L232.65 53.18L232.77 53.69L232.87 54.21L232.97 54.73L233.05 55.25L233.12 55.78L233.18 56.3L233.23 56.83L233.26 57.36L233.29 57.9L233.3 58.43L233.3 58.97L233.27 59.97L233.2 60.95L233.09 61.93L232.95 62.9L232.76 63.85L232.54 64.79L232.29 65.71L232 66.62L231.67 67.51L231.31 68.38L230.92 69.24L230.5 70.08L230.04 70.9L229.55 71.7L229.04 72.48L228.5 73.24L227.92 73.98L227.32 74.69L226.7 75.38L226.05 76.04L225.37 76.68L224.67 77.29L223.95 77.88L223.2 78.44L222.43 78.97L221.65 79.47L220.84 79.94L220.01 80.38L219.16 80.79L218.3 81.17L217.41 81.51L216.52 81.82L215.6 82.1L214.68 82.34L213.73 82.54L212.78 82.71L211.81 82.83L210.83 82.93L209.84 82.98L208.84 82.99L173.94 82.99L173.94 0L206.77 0L207.22 0L207.66 0.01ZM188.64 68.46L209.07 68.46L209.97 68.41L210.84 68.3L211.69 68.1L212.51 67.84L213.3 67.5L214.05 67.11L214.76 66.65L215.43 66.13L216.05 65.56L216.62 64.94L217.14 64.27L217.6 63.56L217.99 62.81L218.33 62.03L218.59 61.2L218.79 60.35L218.9 59.48L218.94 58.58L218.9 57.68L218.79 56.8L218.59 55.95L218.33 55.13L217.99 54.35L217.6 53.6L217.14 52.88L216.62 52.22L216.05 51.6L215.43 51.03L214.76 50.51L214.05 50.05L213.3 49.66L212.51 49.32L211.69 49.06L210.84 48.86L209.97 48.74L209.07 48.7L188.64 48.7L188.64 68.46ZM188.64 34.23L206.77 34.23L207.72 34.18L208.64 34.05L209.54 33.83L210.4 33.54L211.23 33.17L212.01 32.72L212.74 32.22L213.43 31.64L214.06 31.01L214.63 30.33L215.14 29.59L215.58 28.81L215.95 27.99L216.25 27.12L216.47 26.23L216.6 25.3L216.64 24.35L216.6 23.4L216.47 22.48L216.25 21.58L215.95 20.72L215.58 19.89L215.14 19.11L214.63 18.38L214.06 17.69L213.43 17.06L212.74 16.49L212.01 15.98L211.23 15.54L210.4 15.17L209.54 14.87L208.64 14.65L207.72 14.52L206.77 14.48L188.64 14.48L188.64 34.23Z" id="g1VS1JWGsf"></path><path d="M416.06 24.74C405.97 24.66 396.18 28.23 388.51 34.79C388.51 38 388.51 54.05 388.51 82.93L403.44 82.93C403.44 59.37 403.44 46.27 403.44 43.65C406.85 40.43 411.43 38.72 416.12 38.94C418.39 38.72 420.63 39.62 422.12 41.35C423.53 43.78 424.15 46.58 423.92 49.38C423.92 51.62 423.92 62.84 423.92 83.04L439.01 83.04C439.01 62.44 439.01 50.99 439.01 48.7C438.95 33.67 432.05 25.25 418.64 24.74C418.13 24.74 416.32 24.74 416.06 24.74Z" id="a21UjlNSjT"></path><path d="M556.28 66.15C552.87 69.38 548.29 71.09 543.6 70.87C541.33 71.09 539.09 70.19 537.6 68.46C536.19 66.03 535.57 63.23 535.8 60.43C535.8 58.19 535.8 46.96 535.8 26.76L520.71 26.76C520.71 47.34 520.71 58.76 520.71 61.05C520.71 76.03 527.5 84.5 541.02 85.01C541.28 85.01 543.34 85.01 543.6 85.01C553.69 85.11 563.47 81.56 571.15 75.02C571.15 71.79 571.15 55.65 571.15 26.6L556.28 26.6C556.28 47.69 556.28 60.88 556.28 66.15Z" id="b7sejrHKO"></path><path d="M246.16 36.3C246.16 39.42 246.16 54.98 246.16 82.99L261.08 82.99C261.08 60.13 261.08 47.43 261.08 44.89C264.49 41.59 269.08 39.79 273.82 39.89C275.96 39.87 278.11 40.03 280.22 40.4C280.22 39.46 280.22 34.77 280.22 26.32L273.71 26.32C260.46 28.61 251.28 31.94 246.16 36.3Z" id="a7SnThigUN"></path><path d="M93.54 34.28C93.54 34.28 93.54 34.28 93.54 34.28C107.88 34.28 115.85 34.28 117.44 34.28C117.44 34.28 117.44 34.28 117.44 34.28C117.44 42.97 117.44 47.8 117.44 48.76C117.44 48.76 117.44 48.76 117.44 48.76C103.1 48.76 95.13 48.76 93.54 48.76C93.54 48.76 93.54 48.76 93.54 48.76C93.54 40.07 93.54 35.25 93.54 34.28Z" id="aoQpLA5o5"></path><path d="M67.56 68.46C67.56 68.46 67.56 68.46 67.56 68.46C97.49 68.46 114.11 68.46 117.44 68.46C117.44 68.46 117.44 68.46 117.44 68.46C117.44 77.14 117.44 81.97 117.44 82.93C117.44 82.93 117.44 82.93 117.44 82.93C87.51 82.93 70.88 82.93 67.56 82.93C67.56 82.93 67.56 82.93 67.56 82.93C67.56 74.25 67.56 69.42 67.56 68.46Z" id="aqgoRyRVu"></path></defs><g><g><g><use xlink:href="#b3w76szKU" opacity="1" fill="#f76ed6" fill-opacity="1"></use><g><use xlink:href="#b3w76szKU" opacity="1" fill-opacity="0" stroke="#000000" stroke-width="1" stroke-opacity="0"></use></g></g><g><use xlink:href="#b3Traz466q" opacity="1" fill="#f76ed6" fill-opacity="1"></use><g><use xlink:href="#b3Traz466q" opacity="1" fill-opacity="0" stroke="#000000" stroke-width="1" stroke-opacity="0"></use></g></g><g><use xlink:href="#b1pZDeNEkw" opacity="1" fill="#f76ed6" fill-opacity="1"></use><g><use xlink:href="#b1pZDeNEkw" opacity="1" fill-opacity="0" stroke="#000000" stroke-width="1" stroke-opacity="0"></use></g></g><g><use xlink:href="#c1tTyeTvLI" opacity="1" fill="#5331d5" fill-opacity="1"></use><g><use xlink:href="#c1tTyeTvLI" opacity="1" fill-opacity="0" stroke="#000000" stroke-width="1" stroke-opacity="0"></use></g></g><g><use xlink:href="#b3KV1pqmsV" opacity="1" fill="#5331d5" fill-opacity="1"></use><g><use xlink:href="#b3KV1pqmsV" opacity="1" fill-opacity="0" stroke="#000000" stroke-width="1" stroke-opacity="0"></use></g></g><g><use xlink:href="#b2iCNRtJL1" opacity="1" fill="#55d7ff" fill-opacity="1"></use><g><use xlink:href="#b2iCNRtJL1" opacity="1" fill-opacity="0" stroke="#000000" stroke-width="1" stroke-opacity="0"></use></g></g><g><use xlink:href="#e5LkpkUU34" opacity="1" fill="#131740" fill-opacity="1"></use><g><use xlink:href="#e5LkpkUU34" opacity="1" fill-opacity="0" stroke="#000000" stroke-width="1" stroke-opacity="0"></use></g></g><g><use xlink:href="#avA6Y9bFc" opacity="1" fill="#131740" fill-opacity="1"></use><g><use xlink:href="#avA6Y9bFc" opacity="1" fill-opacity="0" stroke="#000000" stroke-width="1" stroke-opacity="0"></use></g></g><g><use xlink:href="#f1XhvnRvOg" opacity="1" fill="#131740" fill-opacity="1"></use><g><use xlink:href="#f1XhvnRvOg" opacity="1" fill-opacity="0" stroke="#000000" stroke-width="1" stroke-opacity="0"></use></g></g><g><use xlink:href="#bxlmHcM5K" opacity="1" fill="#131740" fill-opacity="1"></use><g><use xlink:href="#bxlmHcM5K" opacity="1" fill-opacity="0" stroke="#000000" stroke-width="1" stroke-opacity="0"></use></g></g><g><use xlink:href="#g1VS1JWGsf" opacity="1" fill="#131740" fill-opacity="1"></use><g><use xlink:href="#g1VS1JWGsf" opacity="1" fill-opacity="0" stroke="#000000" stroke-width="1" stroke-opacity="0"></use></g></g><g><use xlink:href="#a21UjlNSjT" opacity="1" fill="#131740" fill-opacity="1"></use><g><use xlink:href="#a21UjlNSjT" opacity="1" fill-opacity="0" stroke="#000000" stroke-width="1" stroke-opacity="0"></use></g></g><g><use xlink:href="#b7sejrHKO" opacity="1" fill="#131740" fill-opacity="1"></use><g><use xlink:href="#b7sejrHKO" opacity="1" fill-opacity="0" stroke="#000000" stroke-width="1" stroke-opacity="0"></use></g></g><g><use xlink:href="#a7SnThigUN" opacity="1" fill="#131740" fill-opacity="1"></use><g><use xlink:href="#a7SnThigUN" opacity="1" fill-opacity="0" stroke="#000000" stroke-width="1" stroke-opacity="0"></use></g></g><g><use xlink:href="#aoQpLA5o5" opacity="1" fill="#f76ed6" fill-opacity="1"></use><g><use xlink:href="#aoQpLA5o5" opacity="1" fill-opacity="0" stroke="#000000" stroke-width="1" stroke-opacity="0"></use></g></g><g><use xlink:href="#aqgoRyRVu" opacity="1" fill="#55d7ff" fill-opacity="1"></use><g><use xlink:href="#aqgoRyRVu" opacity="1" fill-opacity="0" stroke="#000000" stroke-width="1" stroke-opacity="0"></use></g></g></g></g></svg>